<?xml version="1.0"?><svg version="1.1" id="圖層_1" xmlns="http://www.w3.org/2000/svg" x="0" y="0" viewBox="0 0 100 100" xml:space="preserve"><path id="XMLID_111_" d="M89.344 33.098H78.505v-7.113c0-7.902-6.429-14.332-14.332-14.332H35.827c-7.903 0-14.333 6.429-14.333 14.332v7.113H10.656c-1.743 0-3.156 1.15-3.156 2.568v2.42c0 1.418 1.413 2.568 3.156 2.568h1.198l8.119 41.134c.751 3.802 4.13 6.56 8.036 6.56h43.984c3.905 0 7.285-2.759 8.036-6.56l8.119-41.134h1.197c1.743 0 3.156-1.15 3.156-2.568v-2.42c-.001-1.419-1.414-2.568-3.157-2.568zm-63.127-7.114c0-5.299 4.311-9.61 9.61-9.61h28.346c5.299 0 9.61 4.311 9.61 9.61v7.113H26.217v-7.113zm-9.511 14.669h12.23l1.799 16.975H20.056l-3.35-16.975zm11.302 42.972a3.427 3.427 0 0 1-3.363-2.746L20.988 62.35h10.247l2.255 21.275h-5.482zm19.611 0h-9.341L36.024 62.35h11.595v21.275zm0-25.997H35.523l-1.799-16.975h13.895v16.975zm14.103 25.997h-9.341V62.35h11.596l-2.255 21.275zm2.755-25.997H52.381V40.653h13.895l-1.799 16.975zM75.355 80.88a3.427 3.427 0 0 1-3.363 2.746H66.51l2.255-21.275h10.247L75.355 80.88zm4.589-23.252H69.265l1.799-16.975h12.23l-3.35 16.975z"/><metadata xmlns:d="https://loading.io/stock/">
<d:name>basket</d:name>
<d:tags>shopping,buy,purchase,payment,cart,basket,business</d:tags>
<d:license>by</d:license>
<d:slug>veu1qv</d:slug>
</metadata></svg>