<?xml version="1.0" encoding="UTF-8"?>
<svg xmlns="http://www.w3.org/2000/svg" xmlns:xlink="http://www.w3.org/1999/xlink" width="201.56pt" height="201.57pt" viewBox="0 0 201.56 201.57" version="1.1">
<defs>
<clipPath id="clip1">
  <path d="M 0 0 L 201.558594 0 L 201.558594 201.570313 L 0 201.570313 Z M 0 0 "/>
</clipPath>
</defs>
<g id="surface1">
<g clip-path="url(#clip1)" clip-rule="nonzero">
<path style=" stroke:none;fill-rule:nonzero;fill:rgb(100%,100%,100%);fill-opacity:1;" d="M 155.703125 0.00390625 L 45.859375 0.00390625 C 20.574219 0.00390625 0 20.582031 0 45.867188 L 0 155.703125 C 0 180.988281 20.574219 201.570313 45.859375 201.570313 L 155.703125 201.570313 C 180.992188 201.570313 201.558594 180.988281 201.558594 155.703125 L 201.558594 45.867188 C 201.558594 20.582031 180.992188 0.00390625 155.703125 0.00390625 "/>
</g>
<path style=" stroke:none;fill-rule:nonzero;fill:rgb(5.099487%,37.298584%,65.899658%);fill-opacity:1;" d="M 156.042969 7.824219 L 45.523438 7.824219 C 24.738281 7.824219 7.820313 24.742188 7.820313 45.523438 L 7.820313 156.046875 C 7.820313 176.835938 24.738281 193.742188 45.523438 193.742188 L 156.042969 193.742188 C 176.824219 193.742188 193.738281 176.835938 193.738281 156.046875 L 193.738281 45.523438 C 193.738281 24.742188 176.824219 7.824219 156.042969 7.824219 "/>
<path style=" stroke:none;fill-rule:nonzero;fill:rgb(100%,100%,100%);fill-opacity:1;" d="M 81.488281 84.78125 L 71.851563 84.78125 C 69.035156 84.78125 65.378906 86.777344 64.320313 89.4375 L 65.296875 84.339844 L 53.523438 84.339844 L 48.296875 113.644531 L 60.078125 113.644531 L 63.335938 95.097656 L 76.003906 95.097656 C 76.003906 95.097656 74.382813 104.28125 73.660156 108.402344 C 72.945313 112.511719 75.734375 113.519531 77.113281 113.519531 L 83.273438 113.519531 L 87.292969 90.714844 C 86.964844 87.453125 84.753906 84.78125 81.488281 84.78125 "/>
<path style=" stroke:none;fill-rule:nonzero;fill:rgb(100%,100%,100%);fill-opacity:1;" d="M 45.03125 84.339844 L 42.832031 96.90625 L 51.777344 84.339844 "/>
<path style=" stroke:none;fill-rule:nonzero;fill:rgb(100%,100%,100%);fill-opacity:1;" d="M 59.007813 38.414063 L 19.601563 38.414063 L 17.886719 48.136719 L 31.644531 48.136719 L 26.132813 79.433594 L 38.003906 79.433594 L 43.539063 48.136719 L 57.289063 48.136719 "/>
<path style=" stroke:none;fill-rule:nonzero;fill:rgb(100%,100%,100%);fill-opacity:1;" d="M 50.523438 79.433594 C 47.261719 79.433594 45.066406 76.765625 45.636719 73.496094 L 48.664063 56.351563 C 49.230469 53.089844 52.386719 50.414063 55.636719 50.414063 L 74.957031 50.414063 C 78.226563 50.414063 80.433594 53.089844 79.835938 56.351563 L 76.820313 73.496094 C 76.242188 76.765625 73.097656 79.433594 69.84375 79.433594 Z M 67.164063 69.824219 L 68.886719 60.03125 L 58.332031 60.03125 L 56.605469 69.824219 Z M 67.164063 69.824219 "/>
<path style=" stroke:none;fill-rule:nonzero;fill:rgb(100%,100%,100%);fill-opacity:1;" d="M 128.253906 69.824219 L 129.988281 60.03125 L 145.285156 60.03125 L 146.976563 50.414063 L 127.304688 50.414063 C 124.035156 50.414063 120.886719 53.09375 120.316406 56.351563 L 117.292969 73.496094 C 116.714844 76.765625 118.914063 79.425781 122.1875 79.425781 L 141.320313 79.425781 L 143.003906 69.824219 "/>
<path style=" stroke:none;fill-rule:nonzero;fill:rgb(100%,100%,100%);fill-opacity:1;" d="M 104.207031 69.824219 L 91.261719 69.824219 L 94.675781 50.414063 L 84.363281 50.414063 L 80.308594 73.496094 C 79.726563 76.765625 81.925781 79.425781 85.191406 79.425781 L 95.246094 79.425781 C 98.511719 79.425781 101.183594 77.492188 103.285156 74.96875 C 103.285156 74.96875 104.445313 78.339844 106.09375 79.089844 C 107.769531 79.851563 112.789063 79.671875 112.789063 79.671875 L 117.960938 50.414063 L 107.636719 50.414063 "/>
<path style=" stroke:none;fill-rule:nonzero;fill:rgb(100%,100%,100%);fill-opacity:1;" d="M 178.585938 50.570313 L 168.964844 50.570313 C 166.128906 50.570313 163.394531 52.570313 162.339844 55.230469 L 165.109375 39.460938 L 154.261719 39.460938 L 147.214844 79.425781 L 158.074219 79.425781 L 161.335938 60.878906 L 173.105469 60.878906 C 173.105469 60.878906 171.492188 70.054688 170.769531 74.1875 C 170.039063 78.289063 172.839844 79.296875 174.199219 79.296875 L 179.457031 79.296875 L 183.480469 56.507813 C 184.046875 53.230469 181.855469 50.570313 178.585938 50.570313 "/>
<path style=" stroke:none;fill-rule:nonzero;fill:rgb(100%,100%,100%);fill-opacity:1;" d="M 162.804688 112.628906 L 165.902344 95.136719 L 148.476563 95.136719 L 145.382813 112.628906 Z M 139.90625 123.40625 C 135.523438 123.40625 132.554688 119.777344 133.324219 115.402344 L 137.386719 92.359375 C 138.15625 87.964844 142.398438 84.363281 146.796875 84.363281 L 171.378906 84.363281 C 175.757813 84.363281 178.730469 87.964844 177.957031 92.359375 L 173.894531 115.402344 C 173.117188 119.777344 168.878906 123.40625 164.496094 123.40625 "/>
<path style=" stroke:none;fill-rule:nonzero;fill:rgb(100%,100%,100%);fill-opacity:1;" d="M 116.074219 112.628906 L 98.640625 112.628906 L 101.726563 95.136719 L 129.988281 95.136719 L 131.851563 84.363281 L 100.054688 84.363281 C 95.652344 84.363281 91.429688 87.964844 90.660156 92.359375 L 86.589844 115.402344 C 85.816406 119.777344 88.773438 123.40625 93.164063 123.40625 L 117.753906 123.40625 C 122.148438 123.40625 126.390625 119.777344 127.152344 115.402344 L 129.640625 101.261719 L 118.0625 101.261719 "/>
<path style=" stroke:none;fill-rule:nonzero;fill:rgb(97.299194%,83.898926%,1.599121%);fill-opacity:1;" d="M 98.683594 141.765625 L 87.363281 165.101563 L 80.179688 165.101563 L 79.332031 150.984375 L 72.472656 165.101563 L 65.253906 165.101563 L 63.871094 141.765625 L 68.984375 141.765625 L 69.875 160.074219 L 78.675781 141.765625 L 83.878906 141.765625 L 84.765625 160.074219 L 93.570313 141.765625 "/>
<path style=" stroke:none;fill-rule:nonzero;fill:rgb(97.299194%,83.898926%,1.599121%);fill-opacity:1;" d="M 120.0625 165.101563 L 115.070313 165.101563 L 120.027344 141.769531 L 125.011719 141.769531 Z M 120.0625 165.101563 "/>
<path style=" stroke:none;fill-rule:nonzero;fill:rgb(97.299194%,83.898926%,1.599121%);fill-opacity:1;" d="M 128.265625 165.101563 L 123.257813 165.101563 L 128.214844 141.769531 L 133.203125 141.769531 Z M 128.265625 165.101563 "/>
<path style=" stroke:none;fill-rule:nonzero;fill:rgb(97.299194%,83.898926%,1.599121%);fill-opacity:1;" d="M 162.742188 165.101563 L 158.722656 165.101563 C 156.871094 165.101563 155.566406 164.921875 154.839844 164.5625 C 154.105469 164.191406 153.742188 163.460938 153.742188 162.339844 C 153.742188 161.722656 153.839844 160.992188 154.019531 160.152344 L 157.921875 141.769531 L 162.910156 141.769531 L 161.65625 147.574219 L 166.480469 147.574219 L 165.550781 151.789063 L 160.800781 151.789063 L 159.378906 158.445313 C 159.25 159.117188 159.179688 159.570313 159.179688 159.785156 C 159.179688 160.246094 159.328125 160.550781 159.644531 160.671875 C 159.957031 160.816406 160.585938 160.882813 161.527344 160.882813 L 163.644531 160.882813 "/>
<path style=" stroke:none;fill-rule:nonzero;fill:rgb(97.299194%,83.898926%,1.599121%);fill-opacity:1;" d="M 56.375 154.230469 L 47.492188 154.230469 C 47.597656 153.6875 47.726563 153.253906 47.875 152.921875 C 48.027344 152.605469 48.214844 152.359375 48.449219 152.175781 C 48.675781 151.992188 48.96875 151.886719 49.335938 151.832031 C 49.703125 151.785156 50.15625 151.75 50.695313 151.75 L 54.667969 151.75 C 55.96875 151.75 56.617188 152.160156 56.617188 152.96875 C 56.617188 153.054688 56.535156 153.46875 56.375 154.230469 M 60.753906 148.097656 C 60.023438 147.730469 58.726563 147.539063 56.863281 147.539063 L 49.722656 147.539063 C 47.671875 147.539063 46.097656 147.910156 45.03125 148.691406 C 43.96875 149.453125 43.234375 150.742188 42.863281 152.527344 L 41.28125 160.113281 C 41.167969 160.574219 41.085938 160.984375 41.039063 161.34375 C 40.980469 161.707031 40.957031 162.042969 40.957031 162.339844 C 40.957031 162.886719 41.039063 163.328125 41.207031 163.664063 C 41.359375 164 41.628906 164.273438 42.011719 164.484375 C 42.394531 164.710938 42.902344 164.855469 43.550781 164.9375 C 44.210938 165.03125 45.007813 165.058594 45.988281 165.058594 L 58.121094 165.058594 L 59.015625 160.882813 L 48.78125 160.882813 C 47.835938 160.882813 47.207031 160.804688 46.902344 160.652344 C 46.59375 160.507813 46.425781 160.207031 46.425781 159.746094 C 46.425781 159.414063 46.488281 158.992188 46.59375 158.445313 L 46.601563 158.433594 L 48.710938 158.433594 L 48.710938 158.445313 L 60.3125 158.445313 L 61.570313 152.527344 C 61.753906 151.652344 61.847656 150.917969 61.847656 150.292969 C 61.847656 149.203125 61.484375 148.484375 60.753906 148.097656 "/>
<path style=" stroke:none;fill-rule:nonzero;fill:rgb(97.299194%,83.898926%,1.599121%);fill-opacity:1;" d="M 100.058594 160.882813 C 99.332031 160.882813 98.960938 160.574219 98.960938 159.945313 C 98.960938 159.570313 99.117188 159.226563 99.410156 158.914063 C 99.710938 158.601563 100.101563 158.445313 100.59375 158.445313 L 105.980469 158.445313 L 105.992188 158.433594 L 108.082031 158.433594 L 107.5625 160.882813 Z M 114.367188 148.949219 C 114.1875 148.601563 113.898438 148.320313 113.507813 148.121094 C 113.121094 147.914063 112.605469 147.773438 111.96875 147.691406 C 111.335938 147.613281 110.546875 147.574219 109.601563 147.574219 L 97.507813 147.574219 L 96.605469 151.792969 L 106.839844 151.792969 C 107.78125 151.792969 108.410156 151.863281 108.722656 151.992188 C 109.03125 152.132813 109.183594 152.429688 109.183594 152.886719 C 109.183594 153.105469 109.125 153.546875 108.980469 154.230469 L 101.078125 154.230469 C 99.917969 154.230469 98.949219 154.292969 98.179688 154.410156 C 97.402344 154.53125 96.757813 154.769531 96.242188 155.125 C 95.734375 155.472656 95.328125 155.964844 95.035156 156.621094 C 94.730469 157.277344 94.460938 158.128906 94.222656 159.171875 L 94.019531 160.152344 C 93.832031 160.988281 93.722656 161.71875 93.722656 162.339844 C 93.722656 162.90625 93.816406 163.378906 93.996094 163.722656 C 94.175781 164.074219 94.457031 164.347656 94.847656 164.5625 C 95.238281 164.761719 95.75 164.902344 96.382813 164.96875 C 97.023438 165.054688 97.8125 165.101563 98.761719 165.101563 L 111.667969 165.101563 L 114.339844 152.527344 C 114.527344 151.683594 114.621094 150.953125 114.621094 150.339844 C 114.621094 149.773438 114.539063 149.308594 114.367188 148.949219 "/>
<path style=" stroke:none;fill-rule:nonzero;fill:rgb(97.299194%,83.898926%,1.599121%);fill-opacity:1;" d="M 147.53125 154.230469 L 138.648438 154.230469 C 138.753906 153.6875 138.882813 153.253906 139.03125 152.921875 C 139.179688 152.605469 139.371094 152.359375 139.597656 152.175781 C 139.839844 151.992188 140.125 151.886719 140.488281 151.832031 C 140.851563 151.785156 141.3125 151.75 141.851563 151.75 L 145.832031 151.75 C 147.121094 151.75 147.777344 152.160156 147.777344 152.96875 C 147.777344 153.054688 147.699219 153.46875 147.53125 154.230469 M 151.914063 148.097656 C 151.183594 147.730469 149.886719 147.539063 148.019531 147.539063 L 140.878906 147.539063 C 138.820313 147.539063 137.265625 147.910156 136.195313 148.691406 C 135.121094 149.453125 134.398438 150.742188 134.023438 152.527344 L 132.433594 160.113281 C 132.328125 160.574219 132.246094 160.984375 132.1875 161.34375 C 132.140625 161.707031 132.121094 162.042969 132.121094 162.339844 C 132.121094 162.886719 132.1875 163.328125 132.363281 163.664063 C 132.519531 164 132.792969 164.273438 133.171875 164.484375 C 133.550781 164.710938 134.0625 164.855469 134.714844 164.9375 C 135.355469 165.03125 136.171875 165.058594 137.144531 165.058594 L 149.28125 165.058594 L 150.164063 160.882813 L 139.945313 160.882813 C 139 160.882813 138.371094 160.804688 138.054688 160.652344 C 137.746094 160.507813 137.59375 160.207031 137.59375 159.746094 C 137.59375 159.414063 137.648438 158.992188 137.753906 158.445313 L 137.753906 158.433594 L 139.859375 158.433594 L 139.859375 158.445313 L 151.46875 158.445313 L 152.734375 152.527344 C 152.921875 151.652344 153.015625 150.917969 153.015625 150.292969 C 153.015625 149.203125 152.644531 148.484375 151.914063 148.097656 "/>
</g>
</svg>
